{"glyphs":{"0":{"ha":956,"x_min":70,"x_max":886,"o":"m 478 -22 q 259 40 351 -22 q 119 220 168 103 q 70 504 70 338 q 119 786 70 669 q 260 963 168 902 q 478 1024 351 1024 q 696 963 605 1024 q 837 785 788 902 q 886 504 886 669 q 837 220 886 338 q 696 40 788 102 q 478 -22 605 -22 m 478 155 q 617 242 565 155 q 668 504 668 329 q 644 695 668 619 q 578 810 621 772 q 478 849 536 849 q 340 763 392 849 q 288 504 288 676 q 311 310 288 388 q 377 194 334 232 q 478 155 420 155 z "},"1":{"ha":680,"x_min":71,"x_max":521,"o":"m 521 1010 l 521 0 l 308 0 l 308 807 l 302 807 l 71 662 l 71 852 l 321 1010 l 521 1010 z "},"2":{"ha":875,"x_min":72,"x_max":802,"o":"m 82 0 l 82 154 l 441 487 q 519 567 487 531 q 566 636 550 602 q 582 711 582 671 q 562 787 582 755 q 507 837 542 820 q 428 855 472 855 q 347 836 381 855 q 293 782 312 817 q 275 699 275 747 l 72 699 q 117 871 72 798 q 243 984 162 944 q 429 1024 324 1024 q 618 986 538 1024 q 744 880 699 947 q 789 725 789 812 q 766 612 789 668 q 687 489 744 556 q 525 326 629 421 l 378 182 l 378 175 l 802 175 l 802 0 l 82 0 z "},"3":{"ha":916,"x_min":72,"x_max":844,"o":"m 455 -14 q 259 24 345 -14 q 123 130 173 63 q 72 286 73 197 l 287 286 q 311 221 289 249 q 371 178 334 193 q 456 162 409 162 q 542 180 505 162 q 601 227 580 197 q 622 298 622 258 q 600 370 622 338 q 535 419 577 401 q 436 436 494 436 l 342 436 l 342 593 l 436 593 q 522 610 485 593 q 580 657 559 627 q 601 727 601 687 q 583 793 601 764 q 532 838 565 822 q 457 855 500 855 q 378 839 414 855 q 320 795 342 824 q 297 728 298 766 l 92 728 q 142 882 94 815 q 273 986 190 948 q 458 1024 355 1024 q 641 986 563 1024 q 763 884 720 948 q 806 739 807 819 q 754 598 807 654 q 616 526 701 541 l 616 518 q 786 441 727 504 q 844 284 844 378 q 794 130 844 197 q 656 25 744 63 q 455 -14 569 -14 z "},"4":{"ha":942,"x_min":67,"x_max":881,"o":"m 67 178 l 67 346 l 488 1010 l 633 1010 l 633 777 l 547 777 l 282 357 l 282 349 l 881 349 l 881 178 l 67 178 m 551 0 l 551 229 l 555 303 l 555 1010 l 756 1010 l 756 0 l 551 0 z "},"5":{"ha":895,"x_min":85,"x_max":829,"o":"m 451 -14 q 265 25 346 -14 q 135 131 183 63 q 85 286 87 198 l 292 286 q 342 190 296 227 q 451 154 388 154 q 540 176 501 154 q 600 239 579 199 q 622 331 622 279 q 600 425 622 385 q 538 488 578 466 q 448 511 499 511 q 362 493 403 511 q 297 443 320 475 l 107 477 l 155 1010 l 772 1010 l 772 836 l 331 836 l 305 582 l 311 582 q 391 645 337 620 q 511 669 445 669 q 674 626 603 669 q 787 509 746 583 q 828 337 829 434 q 781 156 829 235 q 648 31 733 76 q 451 -14 563 -14 z "},"6":{"ha":917,"x_min":66,"x_max":847,"o":"m 470 -14 q 319 12 392 -13 q 190 96 247 38 q 99 249 133 153 q 66 482 66 344 q 95 710 67 610 q 178 880 124 810 q 308 987 232 950 q 477 1024 383 1024 q 655 985 578 1024 q 780 878 733 945 q 837 728 827 811 l 626 728 q 575 811 614 781 q 477 841 535 841 q 327 755 378 841 q 275 522 276 669 l 282 522 q 344 599 305 567 q 432 647 382 630 q 537 664 481 664 q 696 622 626 664 q 807 507 766 580 q 847 338 847 433 q 800 156 847 236 q 667 31 752 76 q 470 -14 582 -14 m 469 154 q 557 178 518 154 q 618 242 596 201 q 640 332 640 282 q 618 423 640 383 q 558 486 596 463 q 470 510 519 510 q 402 496 433 510 q 347 458 370 482 q 310 401 324 433 q 297 332 297 368 q 319 243 297 283 q 381 178 342 202 q 469 154 419 154 z "},"7":{"ha":826,"x_min":53,"x_max":762,"o":"m 122 0 l 541 829 l 541 836 l 53 836 l 53 1010 l 762 1010 l 762 833 l 342 0 l 122 0 z "},"8":{"ha":918,"x_min":67,"x_max":851,"o":"m 459 -14 q 256 23 345 -14 q 117 125 168 61 q 67 272 67 190 q 96 388 67 335 q 175 476 125 441 q 286 521 224 511 l 286 528 q 155 607 205 545 q 105 752 105 669 q 150 892 105 831 q 276 989 196 953 q 459 1024 357 1024 q 641 988 561 1024 q 767 891 721 953 q 813 752 813 830 q 762 607 813 669 q 632 528 711 545 l 632 521 q 742 476 692 511 q 821 388 792 441 q 851 272 850 335 q 800 125 850 190 q 661 23 750 61 q 459 -14 573 -14 m 459 143 q 547 162 509 143 q 607 213 585 180 q 628 289 628 246 q 606 366 628 332 q 546 419 584 400 q 459 439 508 439 q 371 419 410 439 q 311 366 333 400 q 289 289 289 332 q 310 213 289 246 q 370 162 331 180 q 459 143 408 143 m 459 594 q 534 612 501 594 q 586 659 567 629 q 605 730 605 690 q 586 799 605 769 q 535 846 567 829 q 459 863 502 863 q 383 846 416 863 q 331 799 350 829 q 313 730 313 769 q 331 659 313 690 q 383 612 350 629 q 459 594 416 594 z "},"9":{"ha":917,"x_min":70,"x_max":851,"o":"m 447 1024 q 598 998 525 1024 q 727 914 670 972 q 817 763 784 857 q 851 531 850 668 q 822 302 851 402 q 739 130 793 201 q 610 23 686 60 q 440 -14 534 -14 q 261 25 339 -14 q 137 132 184 65 q 80 285 90 200 l 291 285 q 342 200 303 230 q 440 169 382 169 q 590 255 539 169 q 642 491 641 341 l 635 491 q 574 415 612 447 q 486 366 535 383 q 380 349 436 349 q 221 391 291 349 q 110 506 151 433 q 70 674 70 580 q 117 855 70 775 q 249 979 164 934 q 447 1024 334 1024 m 449 856 q 360 833 399 856 q 299 769 322 809 q 277 680 277 729 q 299 590 277 630 q 359 527 321 550 q 447 504 398 504 q 515 517 484 504 q 570 556 547 531 q 607 612 594 580 q 620 680 620 644 q 598 768 620 728 q 537 832 576 808 q 449 856 498 856 z "},"A":{"ha":1039,"x_min":33,"x_max":1005,"o":"m 262 0 l 33 0 l 382 1010 l 657 1010 l 1005 0 l 776 0 l 523 779 l 515 779 l 262 0 m 248 397 l 788 397 l 788 230 l 248 230 l 248 397 z "},"B":{"ha":918,"x_min":88,"x_max":867,"o":"m 88 0 l 88 1010 l 492 1010 q 678 977 604 1010 q 790 886 753 944 q 828 751 828 827 q 804 647 828 692 q 739 574 780 603 q 645 534 698 546 l 645 524 q 753 492 703 522 q 836 408 804 462 q 867 279 867 354 q 827 136 867 199 q 710 36 788 73 q 519 0 633 0 l 88 0 m 301 175 l 475 175 q 606 209 565 175 q 647 300 647 243 q 626 374 647 342 q 569 425 606 406 q 480 443 532 443 l 301 443 l 301 175 m 301 587 l 460 587 q 538 603 504 587 q 592 647 572 618 q 612 716 612 676 q 573 804 612 770 q 464 837 535 837 l 301 837 l 301 587 z "},"C":{"ha":1045,"x_min":70,"x_max":979,"o":"m 979 656 l 763 656 q 739 731 757 698 q 692 787 721 764 q 626 823 663 810 q 545 835 589 835 q 409 796 467 835 q 319 684 351 758 q 287 505 287 610 q 319 324 287 397 q 409 213 351 250 q 544 175 468 175 q 624 186 587 175 q 689 220 660 198 q 737 273 718 242 q 763 345 756 305 l 979 344 q 937 210 971 275 q 848 95 904 146 q 715 16 792 45 q 541 -14 638 -14 q 299 47 405 -14 q 131 224 193 109 q 70 505 70 340 q 132 786 70 670 q 301 963 194 902 q 541 1024 407 1024 q 704 999 628 1024 q 837 927 779 975 q 932 812 895 880 q 979 656 969 744 z "},"D":{"ha":1010,"x_min":88,"x_max":940,"o":"m 446 0 l 88 0 l 88 1010 l 449 1010 q 711 950 601 1010 q 881 776 821 889 q 940 506 940 663 q 881 235 940 348 q 710 61 821 121 q 446 0 600 0 m 301 183 l 437 183 q 597 217 532 183 q 694 322 661 251 q 727 506 727 393 q 694 689 727 618 q 597 794 661 760 q 437 827 532 827 l 301 827 l 301 183 z "},"E":{"ha":851,"x_min":88,"x_max":770,"o":"m 88 0 l 88 1010 l 768 1010 l 768 834 l 301 834 l 301 593 l 733 593 l 733 417 l 301 417 l 301 176 l 770 176 l 770 0 l 88 0 z "},"F":{"ha":812,"x_min":88,"x_max":757,"o":"m 88 0 l 88 1010 l 757 1010 l 757 834 l 301 834 l 301 593 l 712 593 l 712 417 l 301 417 l 301 0 l 88 0 z "},"G":{"ha":1056,"x_min":70,"x_max":984,"o":"m 758 684 q 728 747 747 720 q 683 795 710 775 q 622 825 656 814 q 546 835 587 835 q 410 797 469 835 q 319 685 352 758 q 287 506 287 612 q 319 327 287 400 q 409 214 351 253 q 548 175 468 175 q 672 201 620 175 q 751 274 724 227 q 778 386 778 322 l 822 380 l 561 380 l 561 541 l 984 541 l 984 413 q 928 185 984 280 q 773 38 872 89 q 547 -14 674 -14 q 297 49 405 -14 q 130 228 190 112 q 70 504 70 344 q 106 723 70 627 q 206 887 142 820 q 357 989 271 954 q 543 1024 442 1024 q 702 999 628 1024 q 834 929 776 974 q 928 821 891 883 q 975 684 964 759 l 758 684 z "},"H":{"ha":1036,"x_min":88,"x_max":948,"o":"m 88 0 l 88 1010 l 301 1010 l 301 593 l 735 593 l 735 1010 l 948 1010 l 948 0 l 735 0 l 735 417 l 301 417 l 301 0 l 88 0 z "},"I":{"ha":390,"x_min":88,"x_max":301,"o":"m 301 1010 l 301 0 l 88 0 l 88 1010 l 301 1010 z "},"J":{"ha":792,"x_min":32,"x_max":703,"o":"m 492 1010 l 703 1010 l 703 306 q 660 136 703 208 q 539 25 616 64 q 359 -14 461 -14 q 193 18 267 -14 q 75 117 119 51 q 33 284 32 183 l 245 284 q 262 216 246 244 q 305 172 277 187 q 369 157 332 157 q 436 174 409 157 q 478 224 464 191 q 492 306 492 257 l 492 1010 z "},"K":{"ha":958,"x_min":88,"x_max":939,"o":"m 88 0 l 88 1010 l 301 1010 l 301 565 l 315 565 l 678 1010 l 934 1010 l 559 558 l 939 0 l 683 0 l 406 415 l 301 287 l 301 0 l 88 0 z "},"L":{"ha":788,"x_min":88,"x_max":734,"o":"m 88 0 l 88 1010 l 301 1010 l 301 176 l 734 176 l 734 0 l 88 0 z "},"M":{"ha":1271,"x_min":88,"x_max":1183,"o":"m 88 1010 l 351 1010 l 629 331 l 641 331 l 919 1010 l 1183 1010 l 1183 0 l 976 0 l 976 657 l 967 657 l 706 5 l 565 5 l 303 660 l 295 660 l 295 0 l 88 0 l 88 1010 z "},"N":{"ha":1021,"x_min":88,"x_max":933,"o":"m 933 1010 l 933 0 l 748 0 l 309 636 l 301 636 l 301 0 l 88 0 l 88 1010 l 275 1010 l 711 375 l 720 375 l 720 1010 l 933 1010 z "},"O":{"ha":1086,"x_min":70,"x_max":1016,"o":"m 1016 505 q 954 224 1016 340 q 784 47 891 108 q 543 -14 677 -14 q 301 47 408 -14 q 132 224 194 109 q 70 505 70 340 q 132 786 70 670 q 301 963 194 902 q 543 1024 408 1024 q 784 963 677 1024 q 954 786 891 902 q 1016 505 1016 670 m 799 505 q 768 686 799 612 q 678 797 736 759 q 543 835 620 835 q 408 797 466 835 q 318 686 350 759 q 287 505 287 612 q 318 325 287 398 q 408 213 350 251 q 543 175 466 175 q 678 213 620 175 q 768 325 736 251 q 799 505 799 398 z "},"P":{"ha":900,"x_min":88,"x_max":848,"o":"m 88 0 l 88 1010 l 486 1010 q 682 966 601 1010 q 806 846 763 923 q 848 668 848 768 q 805 490 848 567 q 679 370 762 413 q 481 327 597 327 l 227 327 l 227 499 l 446 499 q 548 520 508 499 q 608 580 588 542 q 628 668 628 618 q 608 756 628 718 q 548 815 588 794 q 445 836 508 836 l 301 836 l 301 0 l 88 0 z "},"Q":{"ha":1087,"x_min":70,"x_max":1016,"o":"m 469 351 l 651 351 l 742 234 l 832 129 l 1001 -83 l 801 -83 l 685 60 l 625 145 l 469 351 m 1016 505 q 954 224 1016 340 q 784 47 891 108 q 543 -14 677 -14 q 301 47 408 -14 q 132 224 194 109 q 70 505 70 340 q 132 786 70 670 q 301 963 194 902 q 543 1024 408 1024 q 784 963 677 1024 q 954 786 891 902 q 1016 505 1016 670 m 799 505 q 768 686 799 612 q 678 797 736 759 q 543 835 620 835 q 408 797 466 835 q 318 686 350 759 q 287 505 287 612 q 318 325 287 398 q 408 213 350 251 q 543 175 466 175 q 678 213 620 175 q 768 325 736 251 q 799 505 799 398 z "},"R":{"ha":911,"x_min":88,"x_max":884,"o":"m 88 0 l 88 1010 l 486 1010 q 682 969 601 1010 q 806 854 763 929 q 848 680 848 780 q 805 507 848 580 q 679 397 762 435 q 481 358 597 358 l 214 358 l 214 530 l 446 530 q 548 546 508 530 q 608 597 588 563 q 628 680 628 630 q 608 765 628 730 q 548 818 588 799 q 445 836 507 836 l 301 836 l 301 0 l 88 0 m 633 460 l 884 0 l 649 0 l 403 460 l 633 460 z "},"S":{"ha":909,"x_min":55,"x_max":854,"o":"m 636 720 q 585 812 630 779 q 463 845 540 845 q 375 831 411 845 q 320 791 339 816 q 301 732 301 765 q 312 685 300 705 q 347 650 325 665 q 399 625 369 636 q 461 607 428 615 l 551 585 q 673 546 618 571 q 768 485 728 521 q 831 400 809 449 q 854 289 854 352 q 807 128 854 196 q 673 23 761 60 q 462 -14 585 -14 q 249 23 340 -14 q 108 134 159 61 q 55 317 58 208 l 262 317 q 291 233 265 266 q 361 182 317 199 q 460 165 404 165 q 554 181 514 165 q 617 224 594 196 q 639 289 639 253 q 619 346 639 323 q 561 386 599 369 q 467 415 522 402 l 357 443 q 155 540 229 474 q 82 718 81 606 q 131 878 81 810 q 267 985 181 947 q 465 1024 354 1024 q 661 985 577 1024 q 792 878 745 947 q 840 720 839 810 l 636 720 z "},"T":{"ha":928,"x_min":49,"x_max":879,"o":"m 49 834 l 49 1010 l 879 1010 l 879 834 l 570 834 l 570 0 l 359 0 l 359 834 l 49 834 z "},"U":{"ha":1013,"x_min":88,"x_max":925,"o":"m 712 1010 l 925 1010 l 925 354 q 873 161 925 244 q 726 32 820 78 q 507 -14 632 -14 q 287 32 381 -14 q 140 161 192 78 q 88 354 88 244 l 88 1010 l 301 1010 l 301 372 q 327 270 301 315 q 399 199 352 225 q 507 174 445 174 q 615 199 569 174 q 686 270 661 225 q 712 372 712 315 l 712 1010 z "},"V":{"ha":1039,"x_min":33,"x_max":1005,"o":"m 270 1010 l 514 243 l 524 243 l 768 1010 l 1005 1010 l 657 0 l 382 0 l 33 1010 l 270 1010 z "},"W":{"ha":1439,"x_min":26,"x_max":1413,"o":"m 315 0 l 26 1010 l 259 1010 l 427 308 l 435 308 l 619 1010 l 819 1010 l 1003 307 l 1012 307 l 1179 1010 l 1413 1010 l 1124 0 l 915 0 l 723 660 l 715 660 l 523 0 l 315 0 z "},"X":{"ha":992,"x_min":40,"x_max":952,"o":"m 288 1010 l 492 666 l 500 666 l 704 1010 l 945 1010 l 637 505 l 952 0 l 707 0 l 500 345 l 492 345 l 285 0 l 40 0 l 356 505 l 46 1010 l 288 1010 z "},"Y":{"ha":1006,"x_min":29,"x_max":978,"o":"m 29 1010 l 268 1010 l 498 575 l 508 575 l 738 1010 l 978 1010 l 609 357 l 609 0 l 397 0 l 397 357 l 29 1010 z "},"Z":{"ha":926,"x_min":76,"x_max":850,"o":"m 77 0 l 77 127 l 581 834 l 76 834 l 76 1010 l 849 1010 l 849 883 l 345 176 l 850 176 l 850 0 l 77 0 z "},"a":{"ha":806,"x_min":48,"x_max":727,"o":"m 300 -14 q 171 11 227 -14 q 81 87 114 36 q 48 212 48 137 q 72 318 48 275 q 135 387 95 361 q 226 426 175 413 q 333 445 277 439 q 439 458 399 452 q 498 476 480 464 q 516 513 516 489 l 516 516 q 487 588 516 563 q 404 614 458 614 q 314 589 347 614 q 269 527 280 564 l 75 543 q 133 662 90 612 q 245 740 177 713 q 405 767 314 767 q 526 753 468 767 q 629 707 584 738 q 700 627 674 676 q 727 511 727 579 l 727 0 l 527 0 l 527 105 l 521 105 q 472 43 503 70 q 399 1 442 16 q 300 -14 356 -14 m 360 131 q 442 149 406 131 q 498 199 477 168 q 518 271 518 231 l 518 351 q 491 340 508 345 q 453 330 474 334 q 410 323 432 326 q 372 317 389 320 q 307 300 335 312 q 264 268 280 288 q 249 218 249 248 q 280 153 249 176 q 360 131 312 131 z "},"b":{"ha":882,"x_min":88,"x_max":827,"o":"m 88 0 l 88 1010 l 298 1010 l 298 630 l 304 630 q 345 693 318 661 q 414 746 371 725 q 520 767 456 767 q 673 724 603 767 q 785 595 743 681 q 827 378 827 508 q 786 164 827 251 q 675 32 745 77 q 519 -12 606 -12 q 416 8 458 -12 q 346 59 373 28 q 304 121 319 90 l 295 121 l 295 0 l 88 0 m 293 379 q 312 261 293 311 q 366 183 331 211 q 453 155 402 155 q 540 183 504 155 q 594 262 575 212 q 612 379 612 313 q 594 494 612 444 q 540 572 576 544 q 453 600 505 600 q 366 573 401 600 q 312 496 331 546 q 293 379 293 446 z "},"c":{"ha":816,"x_min":53,"x_max":764,"o":"m 426 -15 q 226 35 310 -15 q 98 173 143 84 q 53 376 53 261 q 98 580 53 492 q 227 718 144 668 q 425 767 310 767 q 599 731 524 767 q 717 630 673 695 q 764 477 760 565 l 566 477 q 522 569 558 534 q 429 604 486 604 q 344 577 380 604 q 287 501 307 551 q 267 379 267 450 q 287 255 267 306 q 343 178 307 205 q 429 151 380 151 q 493 166 465 151 q 541 209 522 181 q 566 278 560 238 l 764 278 q 717 125 760 191 q 601 22 675 59 q 426 -15 527 -15 z "},"d":{"ha":882,"x_min":56,"x_max":794,"o":"m 363 -12 q 207 32 277 -12 q 96 164 137 77 q 56 378 56 251 q 98 595 56 508 q 209 724 140 681 q 363 767 279 767 q 469 746 426 767 q 538 693 511 725 q 578 630 564 661 l 584 630 l 584 1010 l 794 1010 l 794 0 l 587 0 l 587 121 l 578 121 q 536 59 563 90 q 467 8 509 28 q 363 -12 424 -12 m 430 155 q 516 183 480 155 q 570 261 551 211 q 589 379 589 311 q 570 496 589 446 q 516 573 551 546 q 430 600 480 600 q 342 572 378 600 q 289 494 307 544 q 270 379 270 444 q 289 262 270 313 q 343 183 307 212 q 430 155 378 155 z "},"e":{"ha":830,"x_min":53,"x_max":777,"o":"m 429 -15 q 228 33 312 -15 q 99 168 144 80 q 53 375 53 255 q 99 581 53 492 q 227 718 144 669 q 421 767 309 767 q 561 744 496 767 q 674 672 625 720 q 750 552 723 624 q 777 383 777 479 l 777 325 l 137 325 l 137 455 l 579 455 q 559 536 579 501 q 505 591 540 571 q 424 611 470 611 q 340 589 376 611 q 282 530 303 567 q 261 448 261 493 l 261 325 q 282 227 261 268 q 341 164 303 186 q 433 142 380 142 q 497 152 468 142 q 546 182 526 162 q 578 230 567 201 l 772 217 q 712 95 758 147 q 595 14 666 43 q 429 -15 523 -15 z "},"f":{"ha":536,"x_min":24,"x_max":528,"o":"m 491 758 l 491 600 l 24 600 l 24 758 l 491 758 m 131 0 l 131 812 q 163 949 131 895 q 252 1030 195 1003 q 379 1057 308 1057 q 468 1050 428 1057 q 528 1037 508 1043 l 490 879 q 460 886 478 883 q 423 890 442 890 q 359 868 377 890 q 340 808 340 847 l 340 0 l 131 0 z "},"g":{"ha":879,"x_min":56,"x_max":796,"o":"m 425 -300 q 250 -272 323 -300 q 135 -196 178 -244 q 79 -89 92 -148 l 273 -63 q 301 -105 282 -85 q 352 -137 321 -125 q 430 -149 384 -149 q 543 -116 499 -149 q 588 -4 588 -82 l 588 134 l 579 134 q 538 74 565 103 q 467 29 510 46 q 363 11 423 11 q 208 51 278 11 q 97 172 138 90 q 56 380 56 254 q 98 595 56 509 q 209 725 140 682 q 363 767 279 767 q 469 746 426 767 q 538 693 512 725 q 579 630 565 661 l 587 630 l 587 758 l 796 758 l 796 -7 q 748 -169 796 -104 q 617 -267 701 -234 q 425 -300 534 -300 m 430 169 q 516 194 480 169 q 570 267 551 219 q 589 381 589 315 q 570 497 589 448 q 516 573 551 546 q 430 600 480 600 q 342 572 378 600 q 289 495 307 545 q 270 381 270 446 q 289 268 270 316 q 343 195 307 220 q 430 169 378 169 z "},"h":{"ha":867,"x_min":84,"x_max":786,"o":"m 294 438 l 294 0 l 84 0 l 84 1010 l 288 1010 l 288 624 l 297 624 q 380 729 323 691 q 523 767 437 767 q 661 733 602 767 q 753 635 720 699 q 785 482 786 571 l 785 0 l 575 0 l 575 445 q 540 554 576 515 q 440 593 504 593 q 364 575 397 593 q 313 522 331 556 q 294 438 294 487 z "},"i":{"ha":378,"x_min":76,"x_max":303,"o":"m 84 0 l 84 758 l 294 758 l 294 0 l 84 0 m 189 855 q 109 887 143 855 q 76 962 76 918 q 109 1036 76 1005 q 189 1068 143 1068 q 270 1036 236 1068 q 303 962 303 1005 q 270 887 303 918 q 189 855 236 855 z "},"j":{"ha":378,"x_min":-36,"x_max":302,"o":"m 84 758 l 294 758 l 294 -37 q 259 -180 294 -125 q 161 -259 225 -234 q 7 -284 96 -284 q -14 -284 -4 -284 q -36 -283 -24 -284 l -36 -119 q -21 -120 -27 -119 q -8 -120 -15 -120 q 63 -98 43 -120 q 84 -34 84 -77 l 84 758 m 188 855 q 109 887 142 855 q 75 962 75 918 q 109 1036 75 1005 q 188 1068 142 1068 q 269 1036 236 1068 q 302 962 302 1005 q 269 887 302 918 q 188 855 236 855 z "},"k":{"ha":808,"x_min":84,"x_max":803,"o":"m 274 218 l 275 470 l 305 470 l 548 758 l 789 758 l 463 377 l 413 377 l 274 218 m 84 0 l 84 1010 l 294 1010 l 294 0 l 84 0 m 557 0 l 334 330 l 474 478 l 803 0 l 557 0 z "},"l":{"ha":378,"x_min":84,"x_max":294,"o":"m 294 1010 l 294 0 l 84 0 l 84 1010 l 294 1010 z "},"m":{"ha":1267,"x_min":84,"x_max":1185,"o":"m 84 0 l 84 758 l 284 758 l 284 624 l 293 624 q 372 729 317 690 q 504 767 427 767 q 637 729 582 767 q 710 624 691 690 l 718 624 q 802 728 741 689 q 946 767 863 767 q 1118 700 1052 767 q 1185 509 1185 633 l 1185 0 l 975 0 l 975 468 q 942 563 975 531 q 858 594 908 594 q 768 558 800 594 q 736 463 736 522 l 736 0 l 533 0 l 533 472 q 501 561 533 528 q 417 594 469 594 q 354 577 382 594 q 310 528 327 559 q 294 455 294 497 l 294 0 l 84 0 z "},"n":{"ha":864,"x_min":84,"x_max":782,"o":"m 294 438 l 294 0 l 84 0 l 84 758 l 284 758 l 284 624 l 293 624 q 377 729 318 690 q 521 767 436 767 q 658 733 600 767 q 750 635 717 698 q 782 482 782 571 l 782 0 l 572 0 l 572 445 q 537 554 573 514 q 437 593 501 593 q 363 575 395 593 q 312 522 330 556 q 294 438 294 487 z "},"o":{"ha":852,"x_min":53,"x_max":799,"o":"m 426 -15 q 228 34 311 -15 q 99 171 144 83 q 53 376 53 259 q 99 581 53 493 q 228 718 144 669 q 426 767 311 767 q 625 718 541 767 q 754 581 708 669 q 799 376 799 493 q 754 171 799 259 q 625 34 708 83 q 426 -15 541 -15 m 427 148 q 514 178 479 148 q 567 259 549 208 q 585 377 585 311 q 567 495 585 443 q 514 577 549 547 q 427 607 479 607 q 339 577 374 607 q 285 495 303 547 q 267 377 267 443 q 285 259 267 311 q 339 178 303 208 q 427 148 374 148 z "},"p":{"ha":878,"x_min":84,"x_max":823,"o":"m 84 -284 l 84 758 l 291 758 l 291 630 l 300 630 q 341 693 314 661 q 410 746 367 725 q 516 767 452 767 q 669 724 599 767 q 781 595 739 681 q 823 378 823 508 q 782 164 823 251 q 672 32 741 77 q 515 -12 602 -12 q 412 8 454 -12 q 342 59 369 28 q 300 121 315 90 l 294 121 l 294 -284 l 84 -284 m 290 379 q 308 261 290 311 q 363 183 327 211 q 449 155 398 155 q 536 183 500 155 q 590 262 571 212 q 608 379 608 313 q 590 494 608 444 q 536 572 572 544 q 449 600 501 600 q 362 573 398 600 q 308 496 327 546 q 290 379 290 446 z "},"q":{"ha":878,"x_min":56,"x_max":794,"o":"m 584 -284 l 584 121 l 578 121 q 536 59 563 90 q 467 8 509 28 q 363 -12 424 -12 q 207 32 277 -12 q 96 164 137 77 q 56 378 56 251 q 98 595 56 508 q 209 724 140 681 q 363 767 279 767 q 469 746 426 767 q 538 693 511 725 q 578 630 564 661 l 587 630 l 587 758 l 794 758 l 794 -284 l 584 -284 m 430 155 q 516 183 480 155 q 570 261 551 211 q 589 379 589 311 q 570 496 589 446 q 516 573 551 546 q 430 600 480 600 q 342 572 378 600 q 289 494 307 544 q 270 379 270 444 q 289 262 270 313 q 343 183 307 212 q 430 155 378 155 z "},"r":{"ha":568,"x_min":84,"x_max":544,"o":"m 84 0 l 84 758 l 288 758 l 288 625 l 295 625 q 365 732 316 696 q 477 768 414 768 q 511 766 493 768 q 544 761 530 764 l 544 575 q 503 582 529 579 q 455 586 476 586 q 372 566 408 586 q 315 510 336 546 q 294 429 294 475 l 294 0 l 84 0 z "},"s":{"ha":780,"x_min":50,"x_max":731,"o":"m 714 542 l 522 530 q 501 574 517 554 q 458 606 484 594 q 395 618 432 618 q 313 598 346 618 q 279 544 279 578 q 301 498 279 516 q 375 468 323 479 l 512 440 q 677 367 623 417 q 731 235 731 317 q 688 104 731 160 q 568 17 644 48 q 394 -15 493 -15 q 155 48 244 -15 q 50 219 66 111 l 257 230 q 302 161 266 184 q 395 137 338 137 q 484 158 450 137 q 518 214 517 180 q 494 261 517 242 q 421 289 470 279 l 290 315 q 125 392 179 337 q 71 532 71 447 q 110 657 71 605 q 222 739 150 710 q 392 767 294 767 q 618 707 535 767 q 714 542 700 646 z "},"t":{"ha":540,"x_min":31,"x_max":501,"o":"m 487 758 l 487 600 l 31 600 l 31 758 l 487 758 m 134 939 l 344 939 l 344 233 q 353 188 344 204 q 378 165 362 172 q 415 159 394 159 q 445 162 430 159 q 468 166 460 164 l 501 9 q 456 -2 485 4 q 387 -10 428 -9 q 254 10 311 -13 q 165 82 197 33 q 134 205 134 131 l 134 939 z "},"u":{"ha":864,"x_min":84,"x_max":780,"o":"m 570 323 l 570 758 l 780 758 l 780 0 l 578 0 l 578 138 l 570 138 q 485 31 545 71 q 340 -10 426 -10 q 207 25 264 -10 q 117 123 149 59 q 84 275 84 186 l 84 758 l 294 758 l 294 313 q 330 207 294 246 q 425 168 365 168 q 496 185 463 168 q 550 237 529 203 q 570 323 570 272 z "},"v":{"ha":814,"x_min":24,"x_max":790,"o":"m 790 758 l 525 0 l 289 0 l 24 758 l 246 758 l 403 216 l 411 216 l 568 758 l 790 758 z "},"w":{"ha":1181,"x_min":27,"x_max":1153,"o":"m 233 0 l 27 758 l 240 758 l 357 249 l 364 249 l 486 758 l 695 758 l 819 252 l 826 252 l 941 758 l 1153 758 l 947 0 l 725 0 l 595 476 l 585 476 l 455 0 l 233 0 z "},"x":{"ha":797,"x_min":35,"x_max":763,"o":"m 259 758 l 399 493 l 541 758 l 757 758 l 537 379 l 763 0 l 548 0 l 399 262 l 252 0 l 35 0 l 259 379 l 42 758 l 259 758 z "},"y":{"ha":814,"x_min":24,"x_max":790,"o":"m 214 -284 q 139 -278 174 -284 q 81 -262 104 -272 l 129 -106 q 196 -118 166 -117 q 247 -104 225 -119 q 283 -54 269 -89 l 295 -22 l 24 758 l 245 758 l 401 201 l 409 201 l 568 758 l 790 758 l 496 -82 q 438 -189 474 -143 q 347 -259 402 -234 q 214 -284 291 -284 z "},"z":{"ha":794,"x_min":80,"x_max":717,"o":"m 80 0 l 80 125 l 451 584 l 451 590 l 93 590 l 93 758 l 704 758 l 704 621 l 356 173 l 356 168 l 717 168 l 717 0 l 80 0 z "},"$":{"ha":909,"x_min":55,"x_max":854,"o":"m 421 -126 l 421 1136 l 502 1136 l 502 -126 l 421 -126 m 636 720 q 585 812 630 779 q 463 845 540 845 q 375 831 411 845 q 320 791 339 816 q 301 732 301 765 q 312 685 300 705 q 347 650 325 665 q 399 625 369 636 q 461 607 428 615 l 551 585 q 673 546 618 571 q 768 485 728 521 q 831 400 809 449 q 854 289 854 352 q 807 128 854 196 q 673 23 761 60 q 462 -14 585 -14 q 249 23 340 -14 q 108 134 159 61 q 55 317 58 208 l 262 317 q 291 233 265 266 q 361 182 317 199 q 460 165 404 165 q 554 181 514 165 q 617 224 594 196 q 639 289 639 253 q 619 346 639 323 q 561 386 599 369 q 467 415 522 402 l 357 443 q 155 540 229 474 q 82 718 81 606 q 131 878 81 810 q 267 985 181 947 q 465 1024 354 1024 q 661 985 577 1024 q 792 878 745 947 q 840 720 839 810 l 636 720 z "},"&":{"ha":936,"x_min":56,"x_max":932,"o":"m 394 -15 q 213 23 289 -15 q 96 125 137 60 q 56 268 56 189 q 79 373 56 327 q 145 458 103 419 q 244 535 188 497 l 440 664 q 496 715 478 688 q 513 773 513 742 q 489 829 513 803 q 421 854 465 855 q 369 841 391 854 q 336 807 348 828 q 324 761 324 786 q 341 696 324 729 q 389 628 359 664 q 453 549 418 591 l 932 0 l 713 0 l 314 445 q 235 539 274 490 q 170 643 196 588 q 144 764 144 699 q 178 896 144 837 q 274 989 212 955 q 419 1023 336 1023 q 559 991 500 1023 q 650 904 618 958 q 682 785 682 850 q 646 656 682 714 q 547 552 611 598 l 341 403 q 279 341 299 373 q 259 280 259 309 q 277 216 259 244 q 327 170 295 187 q 404 154 360 154 q 509 178 457 154 q 604 248 561 203 q 672 355 647 293 q 698 493 698 417 l 872 493 q 852 326 872 400 q 796 197 832 252 q 713 107 760 142 q 685 89 698 97 q 656 71 671 80 q 530 5 600 26 q 394 -15 461 -15 z "},"!":{"ha":451,"x_min":107,"x_max":344,"o":"m 335 1010 l 316 303 l 135 303 l 115 1010 l 335 1010 m 225 -13 q 142 22 177 -13 q 107 106 107 57 q 142 188 107 154 q 225 223 177 223 q 308 188 272 223 q 344 106 343 154 q 327 46 343 73 q 284 3 310 19 q 225 -13 257 -13 z "},"?":{"ha":781,"x_min":53,"x_max":717,"o":"m 264 303 l 264 320 q 280 457 265 406 q 324 540 295 509 q 394 597 353 572 q 449 638 425 617 q 487 685 473 659 q 502 743 502 711 q 485 803 502 777 q 442 842 469 829 q 381 856 414 856 q 321 842 349 856 q 274 801 292 828 q 254 733 255 773 l 53 733 q 100 896 55 832 q 219 992 145 960 q 382 1024 293 1024 q 556 992 480 1024 q 674 898 631 959 q 717 751 717 837 q 698 648 717 693 q 645 569 679 604 q 565 508 611 535 q 501 459 526 484 q 464 401 476 434 q 451 320 452 368 l 451 303 l 264 303 m 362 -13 q 278 22 313 -13 q 244 106 243 57 q 278 188 243 154 q 362 223 313 223 q 444 188 409 223 q 480 106 480 154 q 463 46 480 73 q 420 3 447 19 q 362 -13 394 -13 z "},"(":{"ha":568,"x_min":130,"x_max":530,"o":"m 130 405 q 179 743 130 588 q 329 1029 228 897 l 530 1029 q 459 910 492 980 q 401 756 426 839 q 363 582 376 672 q 349 405 349 493 q 373 169 349 288 q 438 -52 397 50 q 530 -219 479 -154 l 329 -219 q 179 67 228 -88 q 130 405 130 221 z "},")":{"ha":568,"x_min":38,"x_max":438,"o":"m 438 405 q 389 67 438 221 q 239 -219 340 -88 l 38 -219 q 109 -100 76 -171 q 167 54 143 -30 q 206 227 192 138 q 219 405 219 317 q 196 641 219 522 q 130 862 172 760 q 38 1029 89 964 l 239 1029 q 389 743 340 897 q 438 405 438 588 z "},"[":{"ha":568,"x_min":147,"x_max":536,"o":"m 147 -219 l 147 1029 l 536 1029 l 536 872 l 350 872 l 350 -62 l 536 -62 l 536 -219 l 147 -219 z "},"]":{"ha":568,"x_min":32,"x_max":421,"o":"m 421 1029 l 421 -219 l 32 -219 l 32 -62 l 218 -62 l 218 872 l 32 872 l 32 1029 l 421 1029 z "},"{":{"ha":568,"x_min":43,"x_max":536,"o":"m 43 400 l 43 500 q 161 534 128 500 q 194 644 194 568 l 194 753 q 220 899 194 844 q 291 982 245 954 q 399 1019 336 1010 q 536 1029 462 1029 l 536 872 q 448 857 478 872 q 406 811 417 842 q 396 731 396 779 l 396 587 q 382 516 396 550 q 330 456 368 482 q 223 416 293 431 q 43 400 154 400 m 536 -219 q 399 -210 462 -219 q 291 -173 336 -201 q 220 -90 245 -145 q 194 57 194 -35 l 194 166 q 161 276 194 242 q 43 310 128 310 l 43 409 q 223 394 154 409 q 330 353 293 379 q 382 294 368 327 q 396 222 396 260 l 396 78 q 406 -1 396 31 q 448 -47 417 -32 q 536 -62 478 -62 l 536 -219 m 43 310 l 43 500 l 220 500 l 220 310 l 43 310 z "},"}":{"ha":568,"x_min":32,"x_max":525,"o":"m 525 409 l 525 310 q 407 276 440 310 q 374 166 374 242 l 374 57 q 348 -90 374 -35 q 277 -173 323 -145 q 169 -210 232 -201 q 32 -219 107 -219 l 32 -62 q 121 -47 90 -62 q 162 -1 151 -32 q 173 78 173 31 l 173 222 q 186 294 173 260 q 238 353 200 327 q 345 394 275 379 q 525 409 414 409 m 32 1029 q 169 1019 107 1029 q 277 982 232 1010 q 348 899 323 954 q 374 753 374 844 l 374 644 q 407 534 374 568 q 525 500 440 500 l 525 400 q 345 416 414 400 q 238 456 275 431 q 186 516 200 482 q 173 587 173 550 l 173 731 q 162 811 173 779 q 121 857 151 842 q 32 872 90 872 l 32 1029 m 525 500 l 525 310 l 348 310 l 348 500 l 525 500 z "},"@":{"ha":1431,"x_min":84,"x_max":1376,"o":"m 745 -291 q 465 -248 588 -291 q 257 -124 342 -206 q 128 77 173 -41 q 84 346 84 195 q 128 617 84 495 q 259 825 173 738 q 469 959 345 912 q 752 1006 593 1006 q 1014 963 899 1006 q 1211 841 1130 920 q 1333 653 1291 762 q 1375 412 1376 544 q 1359 246 1376 322 q 1308 113 1343 170 q 1217 24 1273 57 q 1081 -13 1161 -9 q 988 -5 1024 -18 q 934 33 953 8 q 910 93 916 59 l 905 93 q 858 39 893 63 q 774 2 824 15 q 669 -7 725 -11 q 559 20 611 -4 q 466 88 507 43 q 403 199 426 133 q 380 352 380 265 q 404 502 380 438 q 468 609 428 565 q 556 677 508 652 q 654 708 605 701 q 760 708 710 717 q 844 681 810 700 q 887 641 878 662 l 894 641 l 894 696 l 1048 696 l 1048 215 q 1063 162 1049 181 q 1103 143 1078 143 q 1160 173 1137 143 q 1195 265 1183 203 q 1206 424 1206 327 q 1182 587 1206 516 q 1114 707 1158 657 q 1013 787 1070 756 q 888 833 955 818 q 749 847 820 847 q 535 810 626 847 q 382 705 443 772 q 290 548 321 638 q 259 352 260 458 q 292 145 260 235 q 388 -6 325 55 q 544 -99 451 -67 q 757 -130 636 -130 q 868 -122 813 -130 q 966 -102 922 -114 q 1036 -80 1010 -91 l 1085 -223 q 1001 -256 1054 -241 q 882 -281 948 -272 q 745 -291 815 -291 m 723 155 q 818 178 783 155 q 870 247 854 201 q 884 360 885 292 q 869 460 884 419 q 819 523 855 501 q 722 544 784 544 q 629 521 667 544 q 570 456 590 498 q 550 358 550 414 q 567 259 550 306 q 620 184 583 213 q 723 155 658 155 z "},"#":{"ha":902,"x_min":14,"x_max":888,"o":"m 467 0 l 632 1010 l 790 1010 l 624 0 l 467 0 m 14 251 l 40 408 l 830 408 l 803 251 l 14 251 m 111 0 l 277 1010 l 435 1010 l 269 0 l 111 0 m 72 602 l 99 760 l 888 760 l 861 602 l 72 602 z "},"/":{"ha":542,"x_min":17,"x_max":524,"o":"m 524 1057 l 198 -152 l 17 -152 l 343 1057 l 524 1057 z "},"|":{"ha":519,"x_min":160,"x_max":359,"o":"m 359 1336 l 359 -326 l 160 -326 l 160 1336 l 359 1336 z "},"\\":{"ha":542,"x_min":17,"x_max":524,"o":"m 343 -152 l 17 1057 l 198 1057 l 524 -152 l 343 -152 z "},"-":{"ha":651,"x_min":95,"x_max":556,"o":"m 556 498 l 556 331 l 95 331 l 95 498 l 556 498 z "},"'":{"ha":290,"x_min":69,"x_max":219,"o":"m 219 1010 l 219 626 l 69 626 l 69 1010 l 219 1010 z "},"\"":{"ha":545,"x_min":69,"x_max":474,"o":"m 219 1010 l 219 626 l 69 626 l 69 1010 l 219 1010 m 474 1010 l 474 626 l 324 626 l 324 1010 l 474 1010 z "},",":{"ha":421,"x_min":77,"x_max":312,"o":"m 312 138 l 307 84 q 282 -46 300 19 q 245 -164 264 -111 q 214 -247 225 -217 l 77 -247 q 98 -165 85 -218 q 122 -49 110 -113 q 136 83 133 16 l 139 138 l 312 138 z "},".":{"ha":413,"x_min":88,"x_max":325,"o":"m 207 -13 q 123 22 158 -13 q 88 106 88 57 q 123 188 88 154 q 207 223 158 223 q 290 188 254 223 q 325 106 325 154 q 309 46 325 73 q 265 3 292 19 q 207 -13 239 -13 z "},":":{"ha":413,"x_min":88,"x_max":325,"o":"m 207 -13 q 123 22 158 -13 q 88 106 88 57 q 123 188 88 154 q 207 223 158 223 q 290 188 254 223 q 325 106 325 154 q 309 46 325 73 q 265 3 292 19 q 207 -13 239 -13 m 207 518 q 123 552 158 518 q 88 636 88 587 q 123 719 88 685 q 207 753 158 753 q 290 719 254 753 q 325 636 325 685 q 309 576 325 603 q 265 534 292 549 q 207 518 239 518 z "},";":{"ha":421,"x_min":77,"x_max":343,"o":"m 312 138 l 307 84 q 282 -46 300 19 q 245 -164 264 -111 q 214 -247 225 -217 l 77 -247 q 98 -165 85 -218 q 122 -49 110 -113 q 136 83 133 16 l 139 138 l 312 138 m 224 518 q 141 552 176 518 q 106 636 106 587 q 141 719 106 685 q 224 753 176 753 q 307 719 272 753 q 343 636 343 685 q 326 576 343 603 q 283 534 310 549 q 224 518 256 518 z "},"<":{"ha":944,"x_min":125,"x_max":819,"o":"m 125 317 l 125 491 l 819 797 l 819 597 l 344 406 l 350 416 l 350 392 l 344 402 l 819 211 l 819 11 l 125 317 z "},">":{"ha":944,"x_min":125,"x_max":819,"o":"m 819 317 l 125 11 l 125 211 l 600 402 l 594 392 l 594 416 l 600 406 l 125 597 l 125 797 l 819 491 l 819 317 z "},"=":{"ha":944,"x_min":131,"x_max":812,"o":"m 131 480 l 131 655 l 812 655 l 812 480 l 131 480 m 131 153 l 131 328 l 812 328 l 812 153 l 131 153 z "},"+":{"ha":944,"x_min":123,"x_max":821,"o":"m 384 55 l 384 753 l 560 753 l 560 55 l 384 55 m 123 316 l 123 492 l 821 492 l 821 316 l 123 316 z "},"~":{"ha":944,"x_min":103,"x_max":841,"o":"m 106 273 q 129 431 103 366 q 203 529 154 495 q 319 562 253 562 q 408 543 365 562 q 504 476 450 524 q 552 438 533 451 q 598 425 572 425 q 655 453 633 425 q 677 540 678 480 l 837 540 q 815 381 841 446 q 739 283 789 317 q 624 250 690 250 q 533 270 576 250 q 438 336 490 291 q 390 375 408 363 q 346 387 371 387 q 289 361 311 387 q 267 273 266 334 l 106 273 z "},"_":{"ha":662,"x_min":-1,"x_max":662,"o":"m 662 0 l 662 -159 l -1 -159 l -1 0 l 662 0 z "},"^":{"ha":677,"x_min":46,"x_max":631,"o":"m 321 901 l 356 901 l 356 847 l 321 847 l 321 901 m 46 552 l 254 988 l 423 988 l 631 552 l 472 552 l 334 867 l 343 867 l 206 552 l 46 552 z "},"*":{"ha":784,"x_min":112,"x_max":672,"o":"m 326 442 l 338 633 l 179 526 l 112 642 l 285 726 l 112 810 l 179 926 l 338 819 l 326 1010 l 459 1010 l 446 819 l 606 926 l 672 810 l 500 726 l 672 642 l 606 526 l 446 633 l 459 442 l 326 442 z "},"%":{"ha":1194,"x_min":116,"x_max":1080,"o":"m 635 189 l 635 243 q 661 354 635 303 q 736 436 687 405 q 857 467 786 467 q 979 436 930 467 q 1054 355 1029 406 q 1080 243 1080 304 l 1080 189 q 1054 78 1080 129 q 979 -4 1028 27 q 857 -35 929 -35 q 735 -4 785 -35 q 660 78 686 27 q 635 189 635 129 m 778 243 l 778 189 q 795 123 778 154 q 857 92 812 92 q 919 123 902 92 q 935 189 935 153 l 935 243 q 919 310 935 279 q 857 341 904 341 q 796 310 813 341 q 778 243 778 279 m 116 767 l 116 821 q 143 933 116 882 q 218 1015 169 984 q 338 1045 268 1045 q 461 1015 411 1045 q 536 933 510 984 q 561 821 561 882 l 561 767 q 535 655 561 706 q 460 574 509 605 q 338 544 410 544 q 217 575 266 544 q 142 656 167 606 q 116 767 116 707 m 261 821 l 261 767 q 278 701 261 731 q 338 670 295 670 q 400 701 384 670 q 417 767 417 731 l 417 821 q 401 888 417 857 q 338 919 385 919 q 278 887 294 919 q 261 821 261 856 m 182 0 l 876 1010 l 1005 1010 l 311 0 l 182 0 z "},"`":{"ha":690,"x_min":196,"x_max":495,"o":"m 346 855 l 196 1080 l 390 1080 l 495 855 l 346 855 z "}," ":{"ha":322,"x_min":0,"x_max":0,"o":""}}}
